<svg width="219" height="227" viewBox="0 0 219 227" fill="none" xmlns="http://www.w3.org/2000/svg">
<g filter="url(#filter0_d_1_7)">
<rect x="4" y="4" width="195" height="203" rx="30" fill="url(#paint0_linear_1_7)"/>
<rect x="4" y="4" width="195" height="203" rx="30" stroke="url(#paint1_linear_1_7)" stroke-width="4"/>
</g>
<path d="M74.4844 168.992C74.4844 170.997 73.1992 172 70.6289 172H67.7236V162.006H73.8213V163.407H69.3574V166.066H70.5469C73.1719 166.066 74.4844 167.042 74.4844 168.992ZM69.3574 170.626H70.5332C71.3171 170.626 71.8913 170.498 72.2559 170.243C72.6204 169.983 72.8027 169.566 72.8027 168.992C72.8027 168.441 72.6182 168.044 72.249 167.803C71.8844 167.557 71.2464 167.434 70.335 167.434H69.3574V170.626ZM82.6738 172L81.6758 169.225H77.8545L76.877 172H75.1543L78.8936 161.965H80.6709L84.4102 172H82.6738ZM81.2451 167.816L80.3086 165.096C80.2402 164.913 80.1445 164.626 80.0215 164.234C79.903 163.842 79.821 163.555 79.7754 163.373C79.6523 163.934 79.4723 164.547 79.2354 165.212L78.333 167.816H81.2451ZM91.6631 162.006V163.407H87.3633V172H85.7295V162.006H91.6631ZM98.9434 172H93.29V162.006H98.9434V163.387H94.9238V166.107H98.6904V167.475H94.9238V170.612H98.9434V172ZM104.562 172H102.929V163.407H99.9893V162.006H107.502V163.407H104.562V172ZM116.922 172H115.281V167.495H110.674V172H109.04V162.006H110.674V166.094H115.281V162.006H116.922V172ZM125.754 172L124.756 169.225H120.935L119.957 172H118.234L121.974 161.965H123.751L127.49 172H125.754ZM124.325 167.816L123.389 165.096C123.32 164.913 123.225 164.626 123.102 164.234C122.983 163.842 122.901 163.555 122.855 163.373C122.732 163.934 122.552 164.547 122.315 165.212L121.413 167.816H124.325ZM131.968 167.994L129.493 172H127.627L130.443 167.618C129.167 167.176 128.529 166.246 128.529 164.829C128.529 163.913 128.846 163.214 129.479 162.73C130.113 162.247 131.045 162.006 132.275 162.006H135.276V172H133.636V167.994H131.968ZM133.636 163.373H132.337C131.649 163.373 131.12 163.496 130.751 163.742C130.386 163.984 130.204 164.38 130.204 164.932C130.204 165.469 130.382 165.889 130.737 166.189C131.093 166.49 131.644 166.641 132.392 166.641H133.636V163.373ZM61.3184 186L58.4199 177.653H58.3652C58.4427 178.893 58.4814 180.055 58.4814 181.14V186H56.998V176.006H59.3018L62.0771 183.956H62.1182L64.9756 176.006H67.2861V186H65.7139V181.058C65.7139 180.561 65.7253 179.914 65.748 179.116C65.7754 178.319 65.7982 177.836 65.8164 177.667H65.7617L62.7607 186H61.3184ZM76.1182 186L75.1201 183.225H71.2988L70.3213 186H68.5986L72.3379 175.965H74.1152L77.8545 186H76.1182ZM74.6895 181.816L73.7529 179.096C73.6846 178.913 73.5889 178.626 73.4658 178.234C73.3473 177.842 73.2653 177.555 73.2197 177.373C73.0967 177.934 72.9167 178.547 72.6797 179.212L71.7773 181.816H74.6895ZM83.4258 177.264C82.487 177.264 81.7487 177.596 81.2109 178.262C80.6732 178.927 80.4043 179.845 80.4043 181.017C80.4043 182.243 80.6618 183.17 81.1768 183.799C81.6963 184.428 82.446 184.742 83.4258 184.742C83.8496 184.742 84.2598 184.701 84.6562 184.619C85.0527 184.533 85.4652 184.423 85.8936 184.291V185.692C85.1097 185.989 84.221 186.137 83.2275 186.137C81.7646 186.137 80.6413 185.695 79.8574 184.811C79.0736 183.922 78.6816 182.653 78.6816 181.003C78.6816 179.964 78.8708 179.055 79.249 178.275C79.6318 177.496 80.1833 176.899 80.9033 176.484C81.6234 176.07 82.4688 175.862 83.4395 175.862C84.4603 175.862 85.4036 176.076 86.2695 176.505L85.6816 177.865C85.3444 177.706 84.9867 177.567 84.6084 177.448C84.2347 177.325 83.8405 177.264 83.4258 177.264ZM91.499 186H89.8652V177.407H86.9258V176.006H94.4385V177.407H91.499V186ZM101.63 186H95.9766V176.006H101.63V177.387H97.6104V180.107H101.377V181.475H97.6104V184.612H101.63V186ZM110.414 179.027C110.414 180.071 110.072 180.871 109.389 181.427C108.705 181.983 107.732 182.261 106.47 182.261H105.431V186H103.797V176.006H106.675C107.924 176.006 108.858 176.261 109.478 176.771C110.102 177.282 110.414 178.034 110.414 179.027ZM105.431 180.887H106.299C107.137 180.887 107.753 180.741 108.145 180.449C108.536 180.158 108.732 179.702 108.732 179.082C108.732 178.508 108.557 178.079 108.206 177.797C107.855 177.514 107.308 177.373 106.565 177.373H105.431V180.887ZM116.662 177.264C115.723 177.264 114.985 177.596 114.447 178.262C113.91 178.927 113.641 179.845 113.641 181.017C113.641 182.243 113.898 183.17 114.413 183.799C114.933 184.428 115.682 184.742 116.662 184.742C117.086 184.742 117.496 184.701 117.893 184.619C118.289 184.533 118.701 184.423 119.13 184.291V185.692C118.346 185.989 117.457 186.137 116.464 186.137C115.001 186.137 113.878 185.695 113.094 184.811C112.31 183.922 111.918 182.653 111.918 181.003C111.918 179.964 112.107 179.055 112.485 178.275C112.868 177.496 113.42 176.899 114.14 176.484C114.86 176.07 115.705 175.862 116.676 175.862C117.697 175.862 118.64 176.076 119.506 176.505L118.918 177.865C118.581 177.706 118.223 177.567 117.845 177.448C117.471 177.325 117.077 177.264 116.662 177.264ZM128.953 186H127.032L122.917 180.935V186H121.283V176.006H122.917V180.846L126.964 176.006H128.755L124.722 180.832L128.953 186ZM136.479 186L135.481 183.225H131.66L130.683 186H128.96L132.699 175.965H134.477L138.216 186H136.479ZM135.051 181.816L134.114 179.096C134.046 178.913 133.95 178.626 133.827 178.234C133.709 177.842 133.627 177.555 133.581 177.373C133.458 177.934 133.278 178.547 133.041 179.212L132.139 181.816H135.051ZM142.693 181.994L140.219 186H138.353L141.169 181.618C139.893 181.176 139.255 180.246 139.255 178.829C139.255 177.913 139.572 177.214 140.205 176.73C140.839 176.247 141.771 176.006 143.001 176.006H146.002V186H144.361V181.994H142.693ZM144.361 177.373H143.062C142.374 177.373 141.846 177.496 141.477 177.742C141.112 177.984 140.93 178.38 140.93 178.932C140.93 179.469 141.107 179.889 141.463 180.189C141.818 180.49 142.37 180.641 143.117 180.641H144.361V177.373Z" fill="#A40F2C"/>
<rect x="19.531" y="148.46" width="162.212" height="2" fill="#C4C4C4"/>
<path fill-rule="evenodd" clip-rule="evenodd" d="M66.1239 138.533L69.8501 138.448L78.4007 103.755L74.6743 103.84L66.1239 138.533Z" fill="#2A222D"/>
<path d="M101.525 103.851H97.9455V139.767H101.525V103.851Z" fill="#2A222D"/>
<path fill-rule="evenodd" clip-rule="evenodd" d="M133.425 138.533L129.699 138.448L121.148 103.755L124.874 103.84L133.425 138.533Z" fill="#2A222D"/>
<path d="M126.18 100.128H73.3694V105.882H126.18V100.128Z" fill="#996438"/>
<path fill-rule="evenodd" clip-rule="evenodd" d="M81.124 100.138V27.5352L86.1922 33.0454V94.6281L81.124 100.138Z" fill="#B15266"/>
<path fill-rule="evenodd" clip-rule="evenodd" d="M132.507 100.128H81.1292L86.1975 94.6183H127.439L132.507 100.128Z" fill="#A21C37"/>
<path d="M126.18 105.719H73.3694V109.005H126.18V105.719Z" fill="#753939"/>
<path fill-rule="evenodd" clip-rule="evenodd" d="M132.507 27.5255V100.128L127.439 94.6183V33.0356L132.507 27.5255Z" fill="#B15266"/>
<path fill-rule="evenodd" clip-rule="evenodd" d="M81.1239 27.5353H132.502L127.433 33.0454H86.1922L81.1239 27.5353Z" fill="#A21C37"/>
<path d="M127.439 33.0453H86.1922V94.6183H127.439V33.0453Z" fill="url(#paint2_linear_1_7)"/>
<path fill-rule="evenodd" clip-rule="evenodd" d="M108.698 103.85H67.5791L71.6354 99.4405H104.642L108.698 103.85Z" fill="#554B49"/>
<path fill-rule="evenodd" clip-rule="evenodd" d="M67.5749 45.7519H108.694L104.638 50.1618H71.6312L67.5749 45.7519Z" fill="#554B49"/>
<path fill-rule="evenodd" clip-rule="evenodd" d="M67.5749 103.858V45.7519L71.6312 50.1618V99.4483L67.5749 103.858Z" fill="#66625F"/>
<path d="M101.604 20.8849H97.9056V27.7158H101.604V20.8849Z" fill="#2A222D"/>
<path fill-rule="evenodd" clip-rule="evenodd" d="M108.694 103.858V45.7519L104.638 50.1618V99.4483L108.694 103.858Z" fill="#66625F"/>
<defs>
<filter id="filter0_d_1_7" x="0" y="0" width="219" height="227" filterUnits="userSpaceOnUse" color-interpolation-filters="sRGB">
<feFlood flood-opacity="0" result="BackgroundImageFix"/>
<feColorMatrix in="SourceAlpha" type="matrix" values="0 0 0 0 0 0 0 0 0 0 0 0 0 0 0 0 0 0 127 0" result="hardAlpha"/>
<feOffset dx="8" dy="8"/>
<feGaussianBlur stdDeviation="5"/>
<feComposite in2="hardAlpha" operator="out"/>
<feColorMatrix type="matrix" values="0 0 0 0 0 0 0 0 0 0 0 0 0 0 0 0 0 0 0.1 0"/>
<feBlend mode="normal" in2="BackgroundImageFix" result="effect1_dropShadow_1_7"/>
<feBlend mode="normal" in="SourceGraphic" in2="effect1_dropShadow_1_7" result="shape"/>
</filter>
<linearGradient id="paint0_linear_1_7" x1="4" y1="4" x2="198.485" y2="199.186" gradientUnits="userSpaceOnUse">
<stop offset="0.15625" stop-color="#FFE7E1"/>
<stop offset="0.666844" stop-color="white"/>
<stop offset="0.973958" stop-color="#FFD6CD"/>
</linearGradient>
<linearGradient id="paint1_linear_1_7" x1="4" y1="4" x2="206.836" y2="198.842" gradientUnits="userSpaceOnUse">
<stop stop-color="white"/>
<stop offset="1" stop-color="#FAAEAE"/>
</linearGradient>
<linearGradient id="paint2_linear_1_7" x1="104.638" y1="57.5597" x2="128.736" y2="91.511" gradientUnits="userSpaceOnUse">
<stop stop-color="#FEFEFE"/>
<stop offset="1" stop-color="#9E9E9E"/>
</linearGradient>
</defs>
</svg>
