<svg width="38" height="41" viewBox="0 0 38 41" fill="none" xmlns="http://www.w3.org/2000/svg">
<path fill-rule="evenodd" clip-rule="evenodd" d="M8.56585 11.2137C8.78306 11.3793 9.68594 12.827 9.91766 13.1665L10.9075 14.6367C11.0339 14.8324 11.1327 14.9569 11.269 15.1199L11.4893 12.9273C11.5899 11.545 11.802 10.2719 10.3672 9.4176C9.61723 8.97095 7.33492 9.00676 6.18386 8.84839C5.39137 8.73929 4.79999 8.71947 4.1852 9.07764C2.88551 9.83486 2.97717 11.0858 2.86374 12.6246C2.65452 15.463 2.49074 18.8307 2.19471 21.6941C2.09955 22.6145 2.11933 23.0921 2.24768 23.8813L3.18667 30.2668L0.63867 37.3407C0.429493 37.9086 0.126431 38.5084 0.237687 39.3318C0.334157 40.0458 0.994207 40.7203 1.80996 40.823H2.23807C2.54163 40.785 2.85598 40.664 3.16304 40.436C3.595 40.1152 3.82744 39.4402 4.03263 38.8407L6.6023 31.7488C7.15241 30.2162 6.85162 29.5702 6.52746 27.5533C6.43816 26.9974 5.97899 23.5751 5.86274 23.323C6.19497 23.3308 6.39321 23.4012 6.83887 23.4012C6.93294 23.8212 9.30577 29.0491 9.64049 29.9393C10.2276 31.5007 11.4131 39.1342 12.0915 40.1235C12.3949 40.5658 12.8541 40.7879 13.3336 40.823H13.6046C14.5747 40.7549 15.5241 39.9552 15.3494 38.6922C15.1611 37.3309 13.2661 28.9949 13.0399 28.4335L11.1196 24.0253C11.0141 23.8046 10.7072 23.1608 10.674 22.9245L10.7434 21.3699C9.75202 20.875 7.0803 21.068 6.36564 18.8154C6.25275 18.4597 5.87422 14.6968 5.80111 14.0122C5.7475 13.5101 5.63751 12.8339 5.63751 12.3855L7.42953 17.5522C7.6149 18.1386 7.83242 18.7857 8.27499 19.0945C8.77616 19.444 12.5697 20.3019 13.6118 20.5729C14.2092 20.7283 14.8904 21.033 15.5257 20.7991C16.8199 20.3226 16.8572 18.5199 15.7882 17.9179C14.9438 17.4424 10.5382 16.7352 10.2692 16.3164L8.56585 11.2137Z" fill="#FE9F8A"/>
<path fill-rule="evenodd" clip-rule="evenodd" d="M17.9516 19.1043C17.9516 20.3672 17.8226 19.9801 17.6513 20.7449H18.4022V37.3856C18.4022 38.1081 18.919 38.6197 19.6036 38.6356C19.6036 35.9842 20.6548 35.9815 20.6548 35.5106V19.8855C20.6548 18.1341 19.2586 18.4012 17.8766 18.4012C17.8842 18.7545 17.9516 18.7116 17.9516 19.1043Z" fill="#FE9F8A"/>
<path fill-rule="evenodd" clip-rule="evenodd" d="M5.11188 4.0262C5.11188 5.15319 5.2694 5.90206 6.02918 6.7436C7.289 8.13902 9.61734 8.13907 10.8773 6.7436C11.9596 5.54487 12.1246 3.58638 11.2058 2.29507C10.5654 1.39496 9.64456 0.900876 8.70335 0.823059H8.17764C7.5317 0.87629 6.89895 1.12692 6.36381 1.57876C5.67949 2.15661 5.11188 3.04733 5.11188 4.0262Z" fill="#FE9F8A"/>
<path fill-rule="evenodd" clip-rule="evenodd" d="M30.1908 38.0106C30.1908 38.8668 30.2918 39.4595 30.9584 40.1025C31.9103 41.0205 33.3799 41.0107 34.3046 40.1034C35.8311 38.6056 34.9393 35.8242 32.7134 35.7201C32.0339 35.6883 31.4234 35.9575 30.9975 36.3499C30.6461 36.6737 30.1908 37.3633 30.1908 38.0106Z" fill="#FE9F8A"/>
<path fill-rule="evenodd" clip-rule="evenodd" d="M20.6548 38.2449C20.6548 40.5055 23.3224 41.5606 24.7308 40.1422C25.8241 39.0411 25.8132 37.3491 24.7287 36.3499C24.3267 35.9795 23.689 35.6637 23.0194 35.7129C21.6418 35.8142 20.6548 36.8916 20.6548 38.2449Z" fill="#FE9F8A"/>
<path fill-rule="evenodd" clip-rule="evenodd" d="M23.4329 28.0106C23.4329 28.5575 23.8661 28.8699 24.4091 28.8699H33.5696C34.8435 28.8699 34.978 27.1512 33.4194 27.1512H24.5592C23.9531 27.1512 23.4329 27.3989 23.4329 28.0106Z" fill="#FE9F8A"/>
<path fill-rule="evenodd" clip-rule="evenodd" d="M23.4329 33.0106C23.4329 33.4588 23.7558 33.87 24.1838 33.87H33.7948C34.7372 33.87 34.8955 32.2293 33.6447 32.2293H24.3339C23.7869 32.2293 23.4329 32.6025 23.4329 33.0106Z" fill="#FE9F8A"/>
<path fill-rule="evenodd" clip-rule="evenodd" d="M23.4329 25.4324C23.4329 25.7959 23.7268 26.2918 24.0336 26.2918H33.945C34.6028 26.2918 34.9894 24.6512 33.5696 24.6512H24.4091C23.8644 24.6512 23.4329 25.007 23.4329 25.4324Z" fill="#FE9F8A"/>
<path fill-rule="evenodd" clip-rule="evenodd" d="M23.4329 22.9324C23.4329 23.3807 23.7558 23.7918 24.1838 23.7918H33.7948C34.7037 23.7918 34.9163 22.1512 33.6447 22.1512H24.3339C23.7869 22.1512 23.4329 22.5244 23.4329 22.9324Z" fill="#FE9F8A"/>
<path fill-rule="evenodd" clip-rule="evenodd" d="M23.4329 30.5887C23.4329 30.969 23.8571 31.3699 24.2589 31.3699H33.6447C34.9093 31.3699 34.7143 29.7293 33.7948 29.7293H24.1838C23.7558 29.7293 23.4329 30.1404 23.4329 30.5887Z" fill="#FE9F8A"/>
<path fill-rule="evenodd" clip-rule="evenodd" d="M26.8119 38.6356C30.0898 38.6356 28.8578 38.8014 29.1849 37.4328C29.3485 36.7484 29.5199 36.6052 29.5901 36.2918H26.1361C26.2275 36.7002 26.4301 36.8848 26.5431 37.4311C26.5787 37.6032 26.6394 37.9802 26.6364 38.0922C26.6311 38.2936 26.4619 38.6356 26.8119 38.6356Z" fill="#FE9F8A"/>
<path fill-rule="evenodd" clip-rule="evenodd" d="M36.1225 37.9325V38.6356C36.6827 38.6356 37.1801 38.6735 37.5318 38.2268C37.7679 37.9268 37.8649 37.5828 37.761 37.1719C37.5318 36.2662 36.7725 36.2918 35.672 36.2918C35.7614 36.691 36.1225 37.1896 36.1225 37.9325Z" fill="#FE9F8A"/>
</svg>
