<svg width="17" height="17" viewBox="0 0 17 17" fill="none" xmlns="http://www.w3.org/2000/svg">
<path fill-rule="evenodd" clip-rule="evenodd" d="M9.11952 13.4284C8.5518 13.3265 6.83946 12.0606 6.41056 11.5635C6.30686 11.4433 6.23871 11.383 6.13463 11.2683C6.04168 11.1658 5.93917 11.087 5.85312 10.98C5.42889 10.4523 4.70251 9.49653 4.46299 8.87991C4.9852 8.30668 5.90331 8.6257 5.61745 6.82682C5.46792 5.88598 5.23483 4.99134 5.02388 4.09382C4.89246 3.5347 4.80937 3.27971 4.44583 3.02901C3.3099 2.24564 1.99183 3.25292 1.41047 4.30452C0.481578 5.98459 0.874802 8.00188 1.59812 9.6501C2.26273 11.1646 3.42727 12.5523 4.382 13.4171C5.87628 14.7705 10.2093 18.2633 13.2778 16.5251C14.9387 15.5843 15.6019 13.1743 13.72 12.6771C12.9306 12.4685 11.9015 12.249 11.0692 12.1363C10.5805 12.0701 9.99264 12.0053 9.72303 12.3439C9.59593 12.5034 9.17414 13.2429 9.11952 13.4284Z" fill="#AF2D46"/>
<path fill-rule="evenodd" clip-rule="evenodd" d="M8.54125 0.43036C8.28677 0.537941 8.12549 0.884378 8.33766 1.1766C8.49615 1.3949 8.85191 1.37113 9.18344 1.41553C11.9954 1.79227 14.1123 3.49164 15.377 6.10448C15.7964 6.97092 15.9429 7.74414 16.1083 8.6765C16.1602 8.96935 16.4247 9.23529 16.7708 9.06423C17.4359 8.73555 16.4662 6.23195 16.2238 5.71102C15.0491 3.18687 13.031 1.35415 10.4026 0.666522C10.0521 0.57481 8.85547 0.297498 8.54125 0.43036Z" fill="#AF2D46"/>
<path fill-rule="evenodd" clip-rule="evenodd" d="M8.50419 2.82425C8.10228 3.02882 8.17804 3.63508 8.60708 3.73439C9.08817 3.8457 9.41739 3.85364 9.88675 4.02676C10.6431 4.30573 11.3769 4.76521 11.824 5.20735C12.3356 5.71322 12.7642 6.27899 13.1295 7.05638C13.504 7.85351 13.5842 8.72169 13.7023 8.88363C13.8588 9.09802 14.803 9.44726 14.3984 7.89499C14.2865 7.46581 14.1532 7.06154 13.9895 6.6906C13.6048 5.8191 12.9627 4.92871 12.3426 4.4056C11.8535 3.99288 11.6165 3.77325 10.9559 3.44062C10.5601 3.24133 8.96452 2.58994 8.50419 2.82425Z" fill="#AF2D46"/>
<path fill-rule="evenodd" clip-rule="evenodd" d="M11.9688 9.03186C11.9784 9.03013 12.0772 9.08951 12.1397 8.81626C12.2755 8.22248 11.4898 6.98192 11.2081 6.6133C10.6199 5.84348 8.74079 4.85558 8.31695 5.403C8.17335 5.58849 8.18012 5.88385 8.3264 6.05414C8.45426 6.20294 8.74212 6.21826 8.98453 6.28292C9.22156 6.34617 9.41085 6.42818 9.6135 6.53879C11.0863 7.34282 11.1572 9.44499 11.8447 9.13841C11.9929 9.07231 11.926 9.08729 11.9688 9.03186Z" fill="#AF2D46"/>
</svg>
