<svg width="14" height="20" viewBox="0 0 14 20" fill="none" xmlns="http://www.w3.org/2000/svg">
<path fill-rule="evenodd" clip-rule="evenodd" d="M6.99804 20C7.15752 19.8255 7.29786 19.5994 7.44115 19.3984L8.71038 17.4868C10.2445 15.0896 12.2993 11.9978 13.3275 9.37141C13.7796 8.21665 14.1136 7.28783 13.9637 5.89053C13.6137 2.63052 10.5892 0.00532535 6.99804 8.00521e-06C3.44607 -0.00524073 0.427822 2.5712 0.041688 5.86721C-0.118907 7.23785 0.20495 8.21415 0.662623 9.34606C1.80891 12.1809 4.319 16.1694 6.10565 18.7454L6.91724 19.9185L6.99804 20ZM6.65468 2.41172C4.43288 2.57882 2.49724 4.45468 2.74019 6.80611C2.9622 8.95449 4.84875 10.7081 7.36312 10.5225C9.57166 10.3595 11.493 8.46386 11.2562 6.11746C11.0412 3.9863 9.14733 2.22427 6.65468 2.41172Z" fill="#AF2D46"/>
</svg>
