<svg width="46" height="51" viewBox="0 0 46 51" fill="none" xmlns="http://www.w3.org/2000/svg">
<path fill-rule="evenodd" clip-rule="evenodd" d="M14.5791 39.9978L14.7584 40.2531C14.8218 40.3779 14.8625 40.461 14.9146 40.5593C15.02 40.7581 15.1157 40.9233 15.2249 41.1424C15.3463 41.2847 15.4392 41.4552 15.5577 41.6401C15.687 41.8415 15.778 41.9505 15.9194 42.1408C16.5263 42.9581 17.7855 44.3103 18.6659 44.7392C18.9699 43.8286 20.1427 42.6986 21.095 42.3159C21.5117 42.1486 21.9237 42.0456 22.429 41.9686C24.1716 41.7032 26.0955 42.6745 26.9363 44.0199C27.7437 43.9014 28.781 43.0414 29.3333 42.5164C29.8765 42.0001 30.5952 40.9277 30.7607 40.0889C29.562 39.6575 29.3598 39.8371 27.6665 39.0205C26.7692 38.5877 25.8258 37.9645 25.1175 37.3819C24.9332 37.2535 24.6852 37.3017 24.3571 37.3036L17.596 37.2935C17.2138 37.3711 17.2537 37.1202 17.1081 36.754C16.9891 36.4546 16.8962 36.1565 16.7932 35.8152C16.5991 35.1725 16.4488 34.4459 16.373 33.7396C16.2952 33.0151 16.4089 32.0998 16.04 31.6927C15.5741 31.1787 14.7305 31.2123 14.2945 31.7145C13.9807 32.0758 13.8267 33.0604 13.7349 33.6525C13.1848 37.2036 14.5053 39.3754 14.5791 39.9978Z" fill="#FE9F8A"/>
<path fill-rule="evenodd" clip-rule="evenodd" d="M33.9562 31.1366C33.8574 31.4546 33.3012 32.2711 33.0784 32.6434C32.9298 32.8916 32.7823 33.1342 32.6288 33.3933C32.4862 33.634 32.3678 33.892 32.1885 34.0795C32.1237 34.3199 31.2709 35.6865 31.0955 35.971C30.7567 35.8631 30.037 35.7724 29.6348 35.6867C29.1578 35.585 28.6541 35.4276 28.2326 35.2702C27.5494 35.015 25.9626 34.2182 25.7294 34.2048C24.5497 34.1372 24.1164 35.4329 24.8683 36.1505C25.1703 36.4387 25.5063 36.6977 25.8408 36.9787C27.5645 38.4267 29.7229 39.2035 32.2287 39.5428C33.7121 39.7437 35.7241 39.4997 37.1059 39.0739C37.6093 38.9187 37.9884 38.7511 38.4487 38.5968C38.2472 38.2361 38.0424 38.004 37.862 37.5845C36.5934 34.6352 38.6791 31.4347 41.9841 31.2723C42.018 30.73 42.1182 30.2627 42.0255 29.6606C41.837 28.4361 41.2588 26.8572 40.3472 26.1571C40.1558 26.232 39.4025 27.0499 38.8337 27.4594C37.861 28.1597 37.2786 28.5724 36.1419 29.058C35.776 29.2143 35.4595 29.3078 35.1328 29.4567C34.6854 29.6607 34.3511 30.7532 33.9562 31.1366Z" fill="#FE9F8A"/>
<path fill-rule="evenodd" clip-rule="evenodd" d="M11.8943 21.2291C11.7252 21.4077 11.1708 21.5218 10.9141 21.6037C10.0482 21.8798 9.07919 22.4496 8.38456 22.8888C7.51843 23.4365 7.58872 23.5149 7.25002 23.7559C6.30394 24.4291 6.06917 25.0573 5.63308 25.2842C5.56203 25.5649 4.96662 26.1841 4.68973 26.725C4.6131 26.8747 4.55021 27.0531 4.43205 27.1477C4.28111 27.5379 4.1 27.8264 3.9688 28.1838C3.90538 28.3567 3.85596 28.5228 3.77472 28.7196C3.72331 28.844 3.71649 28.8689 3.66621 29.0052C3.6616 29.0178 3.62817 29.1057 3.60982 29.1494L3.56485 29.2401L3.36089 30.1556C3.3009 30.5522 3.25137 30.8759 3.19159 31.2994C6.72474 31.0412 9.10023 33.8546 8.40495 36.8339C8.30482 37.2631 8.09871 37.5779 7.9842 37.9379C8.34136 38.1038 8.6226 38.3742 9.07152 38.5913C9.48953 38.7935 9.88442 38.9454 10.2984 39.0585C11.928 39.5039 12.7341 39.138 13.4323 39.134C13.361 38.5867 13.1243 37.9981 13.0073 37.3683C12.7806 36.1472 12.7684 34.5861 12.992 33.3897C13.1202 32.7031 12.7469 32.4093 12.4442 31.8869C11.9292 30.998 11.3904 30.1185 10.826 29.1874C10.2513 28.2396 9.78391 27.3807 9.22772 26.4934L10.5364 25.0899C11.8417 23.8297 12.3164 23.7974 13.2585 23.1336L13.5718 22.7715C13.9808 21.9924 13.454 21.5337 12.8961 21.1962C12.4587 21.171 12.2077 21.2474 11.8943 21.2291Z" fill="#FE9F8A"/>
<path fill-rule="evenodd" clip-rule="evenodd" d="M32.5716 11.4593C32.7527 11.6524 32.8005 12.0715 32.8574 12.314C33.0753 13.2426 33.1862 14.2016 33.1528 15.1796C33.0918 16.9678 32.7303 17.063 33.2216 17.8486L36.7746 23.7768L36.3358 24.2698C35.9834 24.7783 35.1392 25.512 34.6298 25.8994C34.3673 26.099 32.9754 27.1561 32.6674 27.1477C32.462 27.4446 32.2435 27.7355 32.3358 28.2521C32.3979 28.5996 32.6685 28.8847 32.9628 29.0184C33.5945 29.3055 34.7652 28.81 35.2733 28.6162C37.9561 27.5926 39.9961 25.8108 41.4002 23.3851C41.9414 22.4502 42.3348 21.4392 42.5839 20.3309C42.6747 19.9271 42.7036 19.4516 42.7948 19.1035L42.7941 18.9796L42.4951 18.9401C42.4773 18.9565 42.548 19.0149 42.1863 19.0247C42.0646 19.0279 41.9309 19.0073 41.8126 18.9952C41.5907 18.9723 41.332 18.9474 41.1088 18.9027C38.7454 18.4298 37.0327 15.9712 37.5755 13.548C37.6661 13.1441 37.9381 12.6651 37.955 12.3676C37.7337 12.1242 37.0344 11.7347 36.7226 11.6028C36.5106 11.5132 35.3805 11.2004 35.2758 11.0924C34.8915 11.1344 34.2055 11.0082 33.6836 11.0309C33.4223 11.0422 33.145 11.0675 32.9135 11.1046C32.5247 11.1668 32.5973 11.1332 32.5716 11.4593Z" fill="#FE9F8A"/>
<path fill-rule="evenodd" clip-rule="evenodd" d="M17.0267 7.40146C16.906 7.56781 16.6386 7.78918 16.4671 7.97314C16.274 8.18016 16.1227 8.41439 15.9597 8.58353C15.7756 9.05249 15.5192 9.21818 15.1995 10.2012C16.8927 10.4315 19.4179 11.7468 20.6853 12.7715C21.0784 13.0894 21.6783 12.9618 22.5339 12.9618C23.2138 12.9618 23.8936 12.9622 24.5735 12.9618C25.9381 12.961 27.303 12.9621 28.6676 12.9621C28.8542 13.417 29.0409 13.9524 29.1968 14.4603C29.5088 15.5662 29.737 17.0872 29.7069 18.3454C29.7416 18.3686 30.6053 19.5044 31.5731 18.7085C32.0039 18.3543 32.1643 17.3265 32.2516 16.6715C32.6361 13.7851 31.9821 10.539 30.1507 8.24447C29.6278 7.58933 28.0779 5.79589 27.3017 5.56621C27.015 6.80903 25.145 8.18336 23.4917 8.32623C22.4159 8.41919 21.6059 8.23002 20.809 7.81819C19.5661 7.17595 19.4709 6.6833 18.9983 6.27585C18.5856 6.36566 18.242 6.58698 17.9307 6.76836C17.5738 6.97626 17.33 7.22855 17.0267 7.40146Z" fill="#FE9F8A"/>
<path fill-rule="evenodd" clip-rule="evenodd" d="M8.75054 11.2609C8.3945 11.4541 7.93625 11.5089 7.59878 11.7136C7.77832 12.2013 8.16596 12.536 8.34551 13.2758C8.94055 14.4412 8.22789 16.8977 7.15753 17.7177C6.30959 18.3673 6.04274 18.6775 4.72077 18.9299C4.19624 19.0321 3.8167 18.6502 3.94709 20.2776C4.05066 21.5705 4.22489 21.5178 4.38104 22.2831L4.65975 22.761C4.77818 22.9739 4.83291 23.0737 4.9573 23.257C5.06467 23.4152 5.18095 23.5716 5.29863 23.7172L5.57616 24.0376C5.64796 24.1043 5.61888 24.08 5.69679 24.1391C5.89587 23.7345 7.76679 22.3788 8.30972 22.035C8.44666 21.9484 8.53601 21.8983 8.67627 21.8032L10.6637 20.9067C11.1275 20.7476 11.0771 20.7159 11.302 20.3266L12.8664 17.7104C12.9494 17.5657 13.001 17.4799 13.0893 17.3382C13.7115 16.3411 14.3022 15.3312 14.8754 14.3527C16.2477 14.357 18.6731 15.2967 19.8329 15.9492C20.7665 16.4746 21.8116 15.5416 21.431 14.6206C21.1961 14.0521 19.7543 12.9877 19.197 12.6374C17.985 11.8756 16.2821 11.1512 14.865 10.9226C12.4069 10.5261 11.0048 10.6847 8.75054 11.2609Z" fill="#FE9F8A"/>
<path fill-rule="evenodd" clip-rule="evenodd" d="M19.4744 44.9354C19.3447 45.3915 19.1978 45.6408 19.1807 46.2415C19.1626 46.8763 19.2701 47.1195 19.3384 47.6203C19.5147 47.8581 19.5628 48.2277 19.9648 48.715C20.7859 49.7105 22.0601 50.3287 23.6012 50.0935C25.3949 49.8199 26.691 48.4344 26.8313 46.6345C26.9066 45.6682 26.4358 44.6554 25.9968 44.1539C24.1221 42.012 20.8973 42.481 19.6312 44.6926L19.4744 44.9354Z" fill="#FE9F8A"/>
<path fill-rule="evenodd" clip-rule="evenodd" d="M42.1152 39.4675C43.33 39.4675 44.2383 39.0283 44.8647 38.4245C46.1718 37.1646 46.4021 35.1259 45.2842 33.6491C44.3884 32.4658 42.8076 31.844 41.2633 32.2181C38.9468 32.7792 37.6838 35.2431 38.6563 37.2796C39.226 38.4726 40.4184 39.4675 42.1152 39.4675Z" fill="#FE9F8A"/>
<path fill-rule="evenodd" clip-rule="evenodd" d="M22.6631 0.176941C21.5179 0.34221 20.9513 0.568332 20.115 1.41063C19.5127 2.01725 19.1023 3.01521 19.2013 4.19563C19.4699 7.39995 23.6362 8.67343 25.8976 6.25055C26.4203 5.69038 26.9529 4.57226 26.8084 3.48779C26.5238 1.35148 24.5704 -0.0982662 22.6631 0.176941Z" fill="#FE9F8A"/>
<path fill-rule="evenodd" clip-rule="evenodd" d="M38.3578 14.3945C38.1839 15.9176 39.352 17.2172 40.3022 17.7072C43.1408 19.1709 46.553 16.9576 45.9119 13.7595C45.6639 12.5222 44.6361 11.3413 43.4345 11.0318C40.9762 10.1958 38.5641 11.7742 38.3578 14.3945Z" fill="#FE9F8A"/>
<path fill-rule="evenodd" clip-rule="evenodd" d="M0.205352 36.9236C0.318789 37.4888 0.875675 38.2205 1.20606 38.5037C1.69104 38.9194 2.29612 39.2694 3.01087 39.3998C4.80049 39.7265 6.18316 38.9595 6.89936 38.0049C8.88924 35.3526 6.65429 31.9655 3.7685 32.1234C1.15465 32.1967 -0.537467 34.5601 0.205352 36.9236Z" fill="#FE9F8A"/>
<path fill-rule="evenodd" clip-rule="evenodd" d="M2.74868 11.0085C2.20516 11.1276 1.62547 11.4723 1.26782 11.7942C1.18545 11.8684 1.07577 11.9548 0.988411 12.0463C0.747744 12.2982 0.510459 12.7451 0.368849 13.0088C-0.442279 14.5188 0.296301 15.6361 0.578768 16.4873L0.577963 16.4627C0.803873 16.6431 1.07384 17.2538 2.05416 17.7524C5.6803 19.5967 9.5813 15.2601 6.64576 12.0166C5.4736 10.7216 3.1741 10.6209 2.74868 11.0085Z" fill="#FE9F8A"/>
</svg>
