<svg width="49" height="45" viewBox="0 0 49 45" fill="none" xmlns="http://www.w3.org/2000/svg">
<path fill-rule="evenodd" clip-rule="evenodd" d="M16.6028 3.79602L16.0179 5.31865C13.7009 10.6543 11.604 16.5777 9.52036 22.0199C9.33074 22.2282 9.37036 22.5939 9.15054 22.7729C9.15216 23.0668 8.72077 23.8915 8.63403 24.2644L8.57991 24.9275C8.62201 25.5641 9.03335 25.946 9.4522 26.202C9.97773 26.5232 10.5948 26.5125 11.2126 26.2944C11.3146 26.2131 11.4875 26.1428 11.602 26.0534C12.0941 25.6695 12.0935 25.2625 12.3095 25.0085C12.3532 24.7899 12.5084 24.4424 12.6041 24.2122C12.7018 23.9772 12.8104 23.7094 12.8992 23.4343L13.2376 22.6617C13.2648 22.3268 14.059 20.5024 14.2545 19.9954C16.1676 15.0882 18.0588 10.1563 19.9982 5.26256C20.1931 4.7708 20.3972 4.25532 20.5993 3.74441L21.7753 3.95176L33.1665 6.08425L44.4982 8.19878L44.1824 9.11149C44.129 9.26097 35.3241 38.9176 29.1724 41.1001C27.7908 41.5903 25.9605 41.5432 24.7544 40.8573C23.7694 40.297 22.9254 39.1777 22.6275 37.8397C22.3751 37.2621 22.1501 35.0207 22.3065 34.3527C22.1448 34.241 21.9625 34.2209 21.8293 34.1329C21.6239 34.0809 21.5324 34.0415 21.3221 33.9613C21.2407 33.9302 21.1576 33.9075 21.0887 33.8736C20.859 33.7608 21.0219 33.8609 20.9283 33.7601C20.6556 33.7563 19.6537 33.3127 19.3365 33.2048C19.0866 33.1273 17.8539 32.6829 17.733 32.5856L16.9027 32.29C16.6946 32.2362 15.406 31.7621 15.3081 31.6807C14.769 31.4535 14.1685 31.2369 13.6618 31.0655L12.7716 30.7164C12.5122 30.6361 12.2667 30.531 12.0066 30.4321C11.7766 30.3447 11.493 30.2613 11.2647 30.1475C10.9662 30.0771 10.6428 29.917 10.3803 29.8326C10.1084 29.7453 9.7813 29.6343 9.59261 29.5137L8.84738 29.2312C8.55848 29.163 7.3624 28.7353 7.16857 28.5957L5.55526 27.9908L1.11258 26.3532C0.945431 26.6985 0.901017 27.2118 0.839217 27.6245C0.801387 27.8773 0.727574 28.8539 0.67981 28.9716V29.9712C0.877221 30.5371 0.611946 32.2354 2.18223 34.4047C3.1158 35.6945 4.10835 36.4179 5.54804 37.1118C5.73748 37.1702 6.01119 37.2834 6.15922 37.3727L9.43857 38.7389C9.47525 38.7582 9.50661 38.7782 9.54519 38.8027L9.61461 38.8541C9.76669 38.8621 11.0282 39.4071 11.1907 39.4989L12.8269 40.1879L14.3653 40.8559C14.6285 40.9197 15.1699 41.0929 15.3334 41.2828C15.5092 41.2972 16.6452 41.7823 16.9066 41.9141C17.1823 42.0041 18.3868 42.4895 18.5365 42.6164L20.2272 43.3141C21.4524 43.8491 22.7625 44.4372 24.1203 44.7339C24.6722 44.8545 25.5072 44.9364 25.6521 45H26.6791C27.0769 44.8243 30.56 45.1532 33.2738 42.807C33.8093 42.344 34.1081 42.1122 34.5793 41.5496C39.9861 34.5486 48.9127 7.80452 48.7517 6.62697C48.6841 6.13284 48.4124 5.79412 48.1222 5.55156C47.8371 5.31315 47.5777 5.22029 47.1957 5.1498C47.1193 5.13567 47.084 5.13389 47.0191 5.11685L46.8102 5.03472C46.4432 5.08185 44.261 4.56044 43.659 4.4975C43.4043 4.4515 42.9111 4.42109 42.725 4.27274C42.36 4.28589 41.5181 4.08539 41.1593 4.02154C40.6746 3.93532 40.1527 3.84434 39.6627 3.73832C39.3867 3.70375 38.7881 3.67361 38.6271 3.51021C38.1431 3.54947 36.1818 3.0603 35.5148 2.97978L34.8892 2.84729L31.512 2.23322L30.7544 2.07974C30.1703 2.02021 25.9227 1.18337 25.1893 1.05281C24.2827 0.891412 23.3496 0.702829 22.4422 0.542828L20.3612 0.161511C20.2351 0.137621 20.1291 0.120149 20.0007 0.0949653L19.679 0H19.2136C19.0495 0.0757134 18.1415 0.164801 17.727 0.962056C17.4776 1.44163 16.9369 3.08661 16.6028 3.79602Z" fill="#FE9F8A"/>
<path fill-rule="evenodd" clip-rule="evenodd" d="M23.2981 19.7694L23.277 20.4348C23.4142 21.3621 24.1572 21.7206 25.0751 21.9543C25.2276 22.0038 25.3581 22.037 25.4988 22.0782C25.5491 22.0929 25.6445 22.1183 25.6982 22.1412C25.8749 22.2163 25.7674 22.1404 25.8682 22.2473C26.1187 22.2389 27.5804 22.728 27.8897 22.8271C28.5677 23.0445 29.2284 23.2158 29.8522 23.4334L30.7006 23.6808C31.2008 23.8399 31.7399 23.9996 32.211 24.1481C33.0967 24.4271 33.0086 24.3941 33.967 24.2424C34.1227 24.1034 34.2872 24.0617 34.4511 23.905C34.5186 23.8404 34.5798 23.7901 34.6663 23.7029C34.7121 23.6568 34.8233 23.5141 34.8456 23.4883C35.1532 22.8319 35.1938 22.3454 34.807 21.723C34.4838 21.203 34.0922 21.0643 33.4071 20.8514L26.3266 18.6794C25.639 18.4678 25.0906 18.2546 24.3415 18.5566C23.8395 18.7591 23.4214 19.2076 23.2981 19.7694Z" fill="#FE9F8A"/>
<path fill-rule="evenodd" clip-rule="evenodd" d="M26.5262 13.131L26.6561 13.6363C26.7252 13.7302 26.7658 13.8272 26.8275 13.9216C26.869 13.9851 26.98 14.1279 27.0051 14.1568C27.1683 14.3446 27.3358 14.3514 27.504 14.5683L28.2127 14.7607L29.8796 15.1922L31.9876 15.7181C32.3208 15.8046 33.8776 16.1519 34.04 16.2828C34.2323 16.2755 35.2695 16.5388 35.4221 16.612L36.3567 16.8156C36.7472 16.8217 36.8584 16.7839 37.2011 16.7073C37.6087 16.4518 37.9331 16.3118 38.1673 15.8692C38.4633 15.3098 38.3823 14.9338 38.2236 14.3594C37.8557 13.7239 37.5776 13.5581 36.7598 13.3302C36.0837 13.1417 35.4006 12.9895 34.7244 12.809L30.623 11.7751L29.1346 11.3735C28.6874 11.3067 28.6212 11.2265 28.0806 11.2761C27.852 11.3485 27.6494 11.4045 27.4413 11.5059C27.2457 11.6011 27.124 11.7519 26.9792 11.878C26.6686 12.1484 26.5377 12.6214 26.5262 13.131Z" fill="#FE9F8A"/>
<path fill-rule="evenodd" clip-rule="evenodd" d="M21.7547 9.79798C21.6701 9.89893 21.6263 9.915 21.5303 9.97378C21.1878 10.1834 21.0751 10.4605 20.9301 10.6026C20.8214 10.8939 20.7634 11.0438 20.7505 11.3856L20.9403 12.1056C21.1161 12.4759 21.3847 12.7426 21.7807 12.9233C22.2996 13.1601 22.6976 13.1177 23.3062 13.1542C23.4161 13.0628 23.5695 13.042 23.7195 12.9724C23.8675 12.9039 23.9604 12.8307 24.072 12.7506C24.3954 12.5186 24.3924 12.3854 24.6224 12.1097C24.9285 11.1854 24.6395 10.5274 24.0771 10.0716C23.4438 9.55827 22.642 9.56297 21.7547 9.79798Z" fill="#FE9F8A"/>
<path fill-rule="evenodd" clip-rule="evenodd" d="M18.5755 17.1518C18.1964 17.7037 17.8528 17.6966 17.8524 18.5866C17.8521 19.1742 18.0654 19.3249 18.2701 19.7019C18.3402 19.7347 18.2858 19.7035 18.3602 19.7574L18.6435 19.9907C19.2633 20.4268 20.5821 20.5773 21.322 19.8293C21.6242 19.5238 21.6345 19.3615 21.8203 18.9614C21.8509 17.7263 21.3252 16.8481 19.7202 16.8378C19.468 16.8362 19.2414 16.8761 19.046 16.9447C18.8561 17.0112 18.7401 17.1062 18.5755 17.1518Z" fill="#FE9F8A"/>
<path fill-rule="evenodd" clip-rule="evenodd" d="M15.2945 24.1645C15.2644 24.2087 15.2532 24.2299 15.1893 24.2899C14.9397 24.7889 14.739 25.2705 15.0311 25.8927C15.1474 26.1404 15.2782 26.3551 15.4569 26.5062C15.6361 26.6577 15.9084 26.7756 16.0921 26.9005C17.203 27.1258 17.8003 27.0816 18.4508 26.4415C18.6574 26.2382 18.8679 25.8221 18.8893 25.4055C18.9173 24.859 18.7343 24.6114 18.5099 24.2455C18.4343 24.2816 18.4574 24.2871 18.4574 24.2052C18.1406 23.8026 17.6798 23.6623 17.0151 23.5315C16.0055 23.5096 15.8076 23.7526 15.2945 24.1645Z" fill="#FE9F8A"/>
<path fill-rule="evenodd" clip-rule="evenodd" d="M20.5719 26.6786L20.5508 27.3439C20.688 28.2712 21.4311 28.6297 22.3489 28.8634C22.5014 28.9129 22.6319 28.9461 22.7726 28.9873C22.8229 29.002 22.9183 29.0274 22.972 29.0503C23.1487 29.1254 23.0412 29.0495 23.1421 29.1564C23.3925 29.148 24.8542 29.6371 25.1635 29.7363C25.8414 29.9535 26.5022 30.1249 27.1261 30.3425L27.9744 30.5899C28.4746 30.7491 29.0137 30.9087 29.4848 31.0572C30.3705 31.3362 30.2824 31.3032 31.2408 31.1515C31.3965 31.0125 31.561 30.9708 31.7249 30.8141C31.7924 30.7496 31.8536 30.6992 31.9401 30.612C31.9859 30.5659 32.097 30.4232 32.1194 30.3974C32.427 29.741 32.4677 29.2544 32.0808 28.6321C31.7576 28.1121 31.366 27.9734 30.6809 27.7605L23.6004 25.5885C22.9128 25.377 22.3644 25.1636 21.6153 25.4657C21.1133 25.6681 20.6952 26.1166 20.5719 26.6786Z" fill="#FE9F8A"/>
</svg>
