<svg width="34" height="16" viewBox="0 0 34 16" fill="none" xmlns="http://www.w3.org/2000/svg">
<path fill-rule="evenodd" clip-rule="evenodd" d="M2.70452 0.46625C1.64181 0.667154 0.977907 1.09623 0.506133 1.86604C-0.0893584 2.83776 0.0141585 3.75349 0.0141771 5.05111C0.0141957 5.64927 -0.0291625 12.0107 0.0356796 12.4312C0.210934 13.5678 0.722069 14.2476 1.3819 14.6929C2.32207 15.3274 3.2074 15.2163 4.47693 15.217C5.09777 15.2173 11.1782 15.2679 11.6348 15.1846C12.7119 14.9882 13.3673 14.5124 13.8221 13.7833C14.4295 12.8097 14.3203 11.8625 14.3203 10.584C14.3203 9.95841 14.3692 3.64378 14.2911 3.19272C14.093 2.04813 13.6155 1.4079 12.9269 0.946967C11.9835 0.315456 11.0897 0.439429 9.83669 0.439429C9.27013 0.439429 3.09972 0.391543 2.70452 0.46625Z" fill="#7D51A0"/>
<path fill-rule="evenodd" clip-rule="evenodd" d="M4.31884 11.5484L4.34222 13.8912C4.64286 13.8292 4.84135 13.4583 5.02196 13.2272C5.12577 13.0944 5.2301 13.0199 5.33204 12.8884C5.4571 12.7272 5.51025 12.6559 5.6546 12.5107C6.61623 11.5434 6.11139 11.9364 7.66818 11.8255C9.30979 11.7086 10.8764 11.4343 11.6272 10.4001C12.4065 9.3266 12.562 7.40319 12.4257 5.8641C12.2577 3.96674 11.8651 2.97526 10.5127 2.32779C8.60384 1.41388 3.65795 1.21234 2.36427 3.67987C1.6466 5.04873 1.42423 8.81361 2.69686 10.442C3.24585 11.1445 3.98441 11.2557 4.31884 11.5484Z" fill="#FEFEFE"/>
<path fill-rule="evenodd" clip-rule="evenodd" d="M18.3132 9.2195C18.4673 10.165 18.8717 11.1768 19.2912 11.8654C20.1267 13.237 21.3124 14.4301 23.1516 15.1405C25.0411 15.8703 27.3146 15.7147 28.9946 14.8524C29.8063 14.4358 30.5248 13.9196 31.0688 13.3369C31.3744 13.0097 32.4586 11.7306 32.5089 11.1863L32.701 10.8581C34.3632 6.80297 32.4453 2.05922 28.35 0.486187C25.1637 -0.737736 21.7149 0.42821 19.7236 3.09634C18.3947 4.87697 17.9537 7.01431 18.3132 9.2195ZM28.689 9.10763C28.5692 9.58358 28.4884 10.0788 28.3842 10.5737C28.298 10.9828 28.2584 11.8079 27.8144 11.8031C27.5412 11.8001 25.8205 10.4219 25.7467 10.3275C25.4971 10.3392 25.4422 10.4856 25.2996 10.63C25.1731 10.7582 25.0762 10.8515 24.9481 10.9776C24.8306 11.093 24.3517 11.6647 24.1447 11.2441C23.8439 10.6552 23.6438 9.14882 23.3256 8.79103C23.1169 8.79465 22.4748 8.55087 22.233 8.47486C21.2631 8.16995 20.7326 8.02681 22.0588 7.4856C22.2106 7.42366 22.8192 7.20692 22.8952 7.13588C23.3114 7.03514 25.5043 6.11357 26.1022 5.87666C26.6438 5.66204 27.1319 5.46572 27.6656 5.25459C28.0895 5.08687 28.8511 4.67908 29.3334 4.75334C29.5752 5.1186 29.4405 5.35444 29.3587 5.78835C29.1748 6.76377 28.7916 8.29325 28.689 9.10763Z" fill="#1F97C9"/>
<path fill-rule="evenodd" clip-rule="evenodd" d="M22.8952 7.1359C22.8192 7.20694 22.2106 7.42367 22.0588 7.48562C20.7326 8.02683 21.2631 8.16997 22.233 8.47487C22.4748 8.55089 23.1169 8.79467 23.3256 8.79104C23.6117 8.80599 24.2352 8.32328 24.5123 8.13897C24.913 7.87247 25.2712 7.63918 25.6631 7.39294C26.0941 7.12218 27.6042 5.99514 28.0388 5.98701C27.9789 6.23424 27.7893 6.32704 27.6294 6.48845L24.5391 9.33758L24.5841 9.46342L25.7467 10.3275C25.8205 10.4219 27.5412 11.8002 27.8144 11.8031C28.2584 11.8079 28.298 10.9829 28.3842 10.5738C28.4884 10.0789 28.5692 9.58359 28.689 9.10765C28.7916 8.29327 29.1748 6.76379 29.3587 5.78837C29.4405 5.35446 29.5752 5.11862 29.3334 4.75336C28.8511 4.67909 28.0895 5.08689 27.6656 5.2546C27.132 5.46573 26.6438 5.66205 26.1022 5.87668C25.5043 6.11359 23.3115 7.03516 22.8952 7.1359Z" fill="#FEFEFE"/>
<path fill-rule="evenodd" clip-rule="evenodd" d="M4.48037 3.71183C3.07322 4.23259 3.73361 5.4642 4.06632 6.18761C4.80841 7.8012 6.13894 9.13609 7.64025 10.0095C8.51846 10.5204 9.35774 11.05 10.1134 9.90456C10.5475 9.24667 10.2159 9.00883 9.81061 8.68085C9.5955 8.50674 9.0113 8.01325 8.68434 7.96745C7.79858 7.84341 8.12418 9.49005 6.3672 7.92197C6.08269 7.66804 5.77752 7.27628 5.60593 6.83046C5.13223 5.59974 7.04833 6.23218 5.62712 4.37252C5.47039 4.16745 5.37331 4.03287 5.19008 3.85856C4.97221 3.65126 4.82848 3.583 4.48037 3.71183Z" fill="#7D51A0"/>
<path fill-rule="evenodd" clip-rule="evenodd" d="M23.3257 8.79109C23.6438 9.14889 23.8439 10.6553 24.1447 11.2442L24.3191 11.3056C24.3844 11.2423 24.3506 11.3746 24.387 11.1779L24.4619 9.66681C24.5043 9.38209 24.3995 9.51454 24.5841 9.46347L24.5391 9.33764L27.6294 6.4885C27.7893 6.32709 27.9789 6.2343 28.0388 5.98706C27.6042 5.99519 26.0941 7.12223 25.6631 7.39299C25.2712 7.63923 24.913 7.87252 24.5123 8.13902C24.2352 8.32333 23.6117 8.80604 23.3257 8.79109Z" fill="#C8D9E8"/>
<path fill-rule="evenodd" clip-rule="evenodd" d="M6.91697 3.85451C7.8702 4.11602 9.16506 4.10101 9.70723 5.79345C9.81247 6.12198 9.90241 6.96281 9.97734 7.13105C10.3665 7.17087 10.2792 6.85346 10.2414 6.47047C10.1724 5.77139 9.82108 5.00253 9.37241 4.56648C8.86415 4.07252 8.40379 3.71843 7.61321 3.59008C7.26782 3.534 6.90372 3.41511 6.91697 3.85451Z" fill="#7D51A0"/>
<path fill-rule="evenodd" clip-rule="evenodd" d="M24.1447 11.2441C24.3517 11.6648 24.8306 11.0931 24.9481 10.9776C25.0762 10.8515 25.1731 10.7582 25.2997 10.63C25.4423 10.4856 25.4971 10.3392 25.7467 10.3275L24.5841 9.46344C24.3995 9.51451 24.5043 9.38206 24.4619 9.66678L24.387 11.1779C24.3506 11.3746 24.3844 11.2423 24.3191 11.3056L24.1447 11.2441Z" fill="#ABC9D9"/>
<path fill-rule="evenodd" clip-rule="evenodd" d="M9.16819 6.80709C9.44044 6.83026 9.42868 6.75515 9.42745 6.4767C9.42511 5.93958 9.21716 5.4859 8.88823 5.11693C8.6484 4.8479 7.83052 4.23596 7.20782 4.42149C7.06299 4.83376 7.49585 4.75364 7.81619 4.8541C8.37308 5.02874 8.7605 5.30772 8.94835 5.91134C9.02483 6.1571 9.06029 6.64148 9.16819 6.80709Z" fill="#7D51A0"/>
<path fill-rule="evenodd" clip-rule="evenodd" d="M7.40824 5.45715C7.59914 5.7437 8.1307 5.49708 8.27849 6.2501C8.32792 6.502 8.2918 6.56292 8.55821 6.5293C9.03284 5.84152 7.53071 4.75594 7.40824 5.45715Z" fill="#7D51A0"/>
</svg>
